<svg xmlns="http://www.w3.org/2000/svg" viewBox="0 0 64 64">
  <rect width="64" height="64" rx="14" fill="#12151b"/>
  <!-- уголки видоискателя -->
  <path d="M20 10 h-6 a4 4 0 0 0 -4 4 v6" stroke="#3b82f6" stroke-width="4.5" fill="none" stroke-linecap="round"/>
  <path d="M44 10 h6 a4 4 0 0 1 4 4 v6" stroke="#3b82f6" stroke-width="4.5" fill="none" stroke-linecap="round"/>
  <path d="M20 54 h-6 a4 4 0 0 1 -4 -4 v-6" stroke="#3b82f6" stroke-width="4.5" fill="none" stroke-linecap="round"/>
  <path d="M44 54 h6 a4 4 0 0 0 4 -4 v-6" stroke="#3b82f6" stroke-width="4.5" fill="none" stroke-linecap="round"/>
  <!-- узор Data Matrix -->
  <g fill="#e8eaed">
    <rect x="20" y="18" width="6" height="6" rx="1"/>
    <rect x="29" y="18" width="6" height="6" rx="1"/>
    <rect x="38" y="18" width="6" height="6" rx="1" fill="#4ade80"/>
    <rect x="20" y="27" width="6" height="6" rx="1" fill="#4ade80"/>
    <rect x="38" y="27" width="6" height="6" rx="1"/>
    <rect x="20" y="40" width="6" height="6" rx="1"/>
    <rect x="29" y="40" width="6" height="6" rx="1" fill="#4ade80"/>
    <rect x="38" y="40" width="6" height="6" rx="1"/>
  </g>
  <!-- лазерная линия сканера -->
  <rect x="10" y="33.5" width="44" height="4" rx="2" fill="#ff4d4d"/>
  <rect x="10" y="32" width="44" height="1.5" rx="0.75" fill="#ff9d9d" opacity="0.7"/>
</svg>
